####
#
# OBJ File Generated by Meshlab
#
####
# Object hit-hand-2-finger-phadist-closed.obj
#
# Vertices: 158
# Faces: 304
#
####
vn -0.045680 -0.054735 -0.997455
v 0.005847 -0.008723 -0.010054
vn 0.111011 -0.115482 0.987087
v 0.005852 -0.008732 0.009845
vn -0.046215 -0.116773 0.992083
v -0.003850 -0.009047 0.009810
vn 0.002884 0.020953 -0.999776
v -0.003845 -0.009038 -0.010019
vn 0.552184 0.693820 -0.462284
v 0.005865 0.023261 -0.005695
vn 0.514394 0.688396 0.511380
v 0.006149 0.023216 0.005291
vn -0.871422 0.388835 0.299051
v -0.007698 0.024313 0.004942
vn -0.483804 0.740950 -0.465754
v -0.007427 0.024320 -0.005507
vn 0.407603 -0.898818 -0.161201
v 0.006538 -0.005865 0.008997
vn -0.237997 -0.950159 -0.201382
v -0.009802 -0.004367 0.007115
vn 0.227282 -0.556563 -0.799113
v 0.005855 -0.008729 0.008996
vn -0.043052 -0.110646 -0.992927
v -0.003782 -0.009039 0.008995
vn -0.306621 -0.914484 0.264014
v -0.009771 -0.004578 -0.007563
vn 0.834272 0.006158 0.551318
v 0.006735 -0.005560 -0.008902
vn -0.236789 -0.675193 0.698603
v -0.003788 -0.009032 -0.008905
vn 0.147794 -0.335861 0.930244
v 0.005849 -0.008726 -0.008904
vn -0.030231 -0.771328 0.635720
v -0.000371 -0.005555 -0.008903
vn 0.728380 0.136494 -0.671441
v 0.008404 0.013410 -0.007875
vn 0.672448 0.136184 0.727508
v 0.008368 0.013427 0.007685
vn -0.870373 0.163279 0.464532
v -0.009105 0.013652 0.008658
vn -0.700533 0.119470 -0.703548
v -0.009326 0.013558 -0.008618
vn 0.045554 0.747531 -0.662663
v -0.000404 0.025039 -0.005834
vn -0.008405 0.802565 0.596505
v -0.000540 0.025079 0.005558
vn 0.072169 0.093917 0.992961
v -0.000168 0.013805 0.009805
vn 0.075927 0.129119 -0.988718
v -0.000169 0.013815 -0.009988
vn 0.958516 0.264644 -0.105880
v 0.010028 0.019118 -0.001793
vn 0.386969 0.099390 -0.916721
v 0.009148 0.006448 -0.008237
vn 0.586649 0.082133 0.805665
v 0.009148 0.006439 0.008045
vn 0.924960 -0.007356 0.379993
v 0.009392 0.006595 0.007604
vn 0.981857 0.169719 -0.084577
v 0.011049 0.007253 -0.002003
vn 0.887403 0.066091 -0.456232
v 0.009252 0.006515 -0.008023
vn 0.416777 0.070278 -0.906288
v 0.007213 0.004479 -0.009541
vn 0.071492 0.158180 0.984819
v 0.007213 0.004474 0.009347
vn 0.924739 -0.302181 0.231396
v 0.008103 0.005041 0.008253
vn 0.919794 -0.391591 -0.025194
v 0.008964 0.006974 0.002527
vn 0.895215 -0.445625 0.003059
v 0.008103 0.005040 -0.008650
vn -0.254645 -0.006891 0.967010
v -0.009114 -0.002247 0.009710
vn -0.037500 0.031688 -0.998794
v -0.010120 -0.002274 -0.009310
vn -0.936732 0.042810 0.347419
v -0.010843 -0.002102 0.008161
vn -0.998447 0.044051 -0.034115
v -0.012201 -0.001644 -0.002297
vn -0.924524 0.037253 -0.379298
v -0.010844 -0.002094 -0.008362
vn 0.385736 -0.922470 0.016033
v 0.005845 -0.008736 0.009313
vn 0.007602 0.052876 -0.998572
v 0.000926 -0.010235 -0.010034
vn 0.701680 0.352205 -0.619352
v 0.007385 0.019130 -0.007481
vn 0.024355 -0.137454 0.990209
v 0.000926 -0.010228 0.009824
vn 0.654775 0.333942 0.678051
v 0.007385 0.019123 0.007304
vn -0.400809 -0.915484 -0.035230
v -0.003849 -0.009036 -0.010019
vn -0.934090 0.248086 0.256768
v -0.008707 0.019623 0.007218
vn -0.839801 0.330990 -0.430324
v -0.008368 0.019710 -0.007785
vn 0.566038 0.821573 -0.067966
v 0.006796 0.024456 -0.000191
vn -0.111223 0.844815 -0.523371
v -0.004832 0.024665 -0.005677
vn -0.198138 0.828575 0.523646
v -0.004774 0.024667 0.005501
vn -0.781060 0.624060 -0.022237
v -0.008542 0.025691 -0.000191
vn 0.403366 -0.914782 -0.021679
v 0.005859 -0.008720 -0.009624
vn -0.369746 -0.928231 -0.040936
v -0.003861 -0.009041 0.009314
vn -0.083307 -0.978698 -0.187643
v -0.001266 -0.005479 0.009197
vn 0.071028 -0.025437 -0.997150
v 0.006803 -0.007700 0.008996
vn 0.054881 -0.182306 -0.981709
v -0.006786 -0.007367 0.008996
vn -0.015324 -0.093662 -0.995486
v 0.000847 -0.010319 0.008994
vn -0.332839 -0.941904 0.045120
v -0.010871 -0.003228 -0.000228
vn 0.945373 -0.325985 0.001875
v 0.006735 -0.005555 -0.008902
vn -0.057997 -0.859771 0.507375
v -0.005303 -0.004829 -0.008902
vn -0.115142 -0.383356 0.916395
v -0.006781 -0.007338 -0.008904
vn 0.200175 -0.078872 0.976580
v 0.006853 -0.007661 -0.008904
vn -0.000078 -0.000770 1.000000
v 0.003293 -0.005169 -0.008902
vn -0.000058 -0.000628 1.000000
v 0.003027 -0.007972 -0.008904
vn -0.000007 -0.000670 1.000000
v -0.002558 -0.007796 -0.008904
vn 0.045267 -0.416881 0.907833
v 0.000848 -0.010309 -0.008906
vn 0.249147 0.025893 -0.968119
v 0.006508 -0.002483 -0.010172
vn 0.128873 -0.001691 0.991660
v 0.006509 -0.002482 0.009970
vn -0.108251 -0.077178 0.991123
v -0.007663 -0.006658 0.009773
vn 0.009338 0.111034 -0.993773
v -0.007657 -0.006651 -0.009980
vn 0.996480 0.077948 -0.030857
v 0.010910 0.014157 -0.000091
vn -0.125073 0.140627 0.982131
v -0.005865 0.013922 0.009692
vn -0.991722 0.127219 0.017403
v -0.010562 0.014258 -0.000091
vn -0.128668 0.066258 -0.989472
v -0.005069 0.014446 -0.009873
vn 0.279172 0.835300 -0.473642
v 0.002692 0.024205 -0.006483
vn 0.241834 0.771816 0.588061
v 0.002738 0.024335 0.005758
vn 0.179055 0.098655 0.978880
v 0.004785 0.013933 0.008893
vn 0.235852 0.179012 -0.955159
v 0.004872 0.013425 -0.008996
vn 0.079589 0.996483 -0.026199
v -0.000387 0.026572 -0.000084
vn 0.021289 0.337721 0.941006
v -0.000399 0.020637 0.008368
vn 0.073991 0.309220 -0.948108
v -0.000372 0.020592 -0.008556
vn 0.014250 -0.997552 0.068456
v 0.000726 -0.010308 0.009084
vn -0.110639 0.993695 0.018156
v -0.005047 0.026525 -0.000393
vn 0.868540 0.463882 0.174504
v 0.008477 0.021675 0.000947
vn -0.176654 0.381190 0.907462
v -0.007139 0.020531 0.008054
vn -0.981967 0.187166 -0.026629
v -0.009694 0.020065 -0.002852
vn -0.109284 -0.018851 -0.993832
v -0.002222 0.001548 -0.009899
vn -0.023066 -0.001461 -0.999733
v 0.002776 0.002023 -0.010552
vn -0.131020 -0.991266 -0.015038
v -0.008928 -0.004014 -0.002402
vn -0.082070 -0.996542 -0.012959
v 0.003295 -0.005166 -0.008902
vn -0.003598 0.032623 -0.999461
v 0.001502 -0.008274 0.008996
vn -0.021157 -0.999236 -0.032867
v 0.000703 -0.010296 -0.009890
vn 0.918153 -0.083724 0.387280
v 0.006791 -0.007633 0.009468
vn 0.917348 -0.069947 -0.391894
v 0.006833 -0.007689 -0.010066
vn 0.936316 -0.189470 0.295656
v 0.006767 -0.000086 0.009201
vn 0.988246 -0.152838 -0.003224
v 0.006766 -0.000087 0.009201
vn 0.900797 0.134374 -0.412927
v 0.008842 0.010097 -0.008068
vn 0.178432 0.022497 0.983695
v 0.003533 0.002776 0.010229
vn 0.030504 0.010412 0.999480
v -0.001429 0.000684 0.010355
vn -0.664933 -0.746752 0.015030
v -0.006928 -0.007267 0.009114
vn -0.671776 -0.738642 -0.055911
v -0.006844 -0.007257 -0.009994
vn -0.938609 0.081985 0.335099
v -0.010188 0.005824 0.008929
vn -0.988798 0.112798 -0.097751
v -0.010745 0.006828 -0.007056
vn -0.872336 -0.436500 -0.220222
v -0.010905 -0.003431 -0.008288
vn -0.157672 0.366200 -0.917081
v -0.007143 0.020449 -0.008261
vn 0.281376 0.959576 -0.006476
v 0.003255 0.025722 -0.000084
vn 0.194836 0.309586 0.930696
v 0.002998 0.019036 0.008304
vn 0.174351 0.271297 -0.946573
v 0.005669 0.020412 -0.007530
vn 0.941065 0.179641 -0.286577
v 0.009357 0.016098 -0.005026
vn 0.835489 0.464228 -0.294024
v 0.007796 0.021780 -0.004026
vn 0.954849 0.212383 0.207743
v 0.010034 0.016596 0.003277
vn 0.348435 0.116141 -0.930110
v 0.008849 0.010007 -0.008072
vn 0.487184 0.076960 0.869902
v 0.008861 0.010029 0.007888
vn 0.897275 0.088618 0.432487
v 0.008854 0.010119 0.007884
vn 0.977950 0.109214 -0.178007
v 0.009356 0.010461 -0.006574
vn 0.970728 -0.225209 -0.083479
v 0.006845 -0.000042 -0.008899
vn 0.866594 0.047897 0.496710
v 0.009148 0.006439 0.008045
vn 0.966403 -0.073993 0.246151
v 0.011099 0.007552 0.003325
vn 0.891610 0.046496 -0.450411
v 0.009148 0.006448 -0.008237
vn 0.955904 0.008516 -0.293556
v 0.010587 0.007378 -0.005273
vn 0.378864 0.149158 -0.913353
v 0.008832 0.006227 -0.008489
vn 0.489311 0.092686 0.867170
v 0.008833 0.006217 0.008297
vn 0.753109 -0.646925 0.119647
v 0.009065 0.006065 0.008050
vn 0.185697 -0.982567 0.008843
v 0.010802 0.007257 0.000269
vn 0.796634 -0.579833 -0.170787
v 0.009063 0.006063 -0.008242
vn 0.894033 -0.447971 0.005178
v 0.009109 0.006032 0.005996
vn 0.851873 -0.523454 0.017536
v 0.008883 0.006953 -0.003391
vn 0.794292 -0.196125 0.575008
v 0.007920 0.004549 0.008811
vn 0.788561 -0.191777 -0.584288
v 0.007909 0.004531 -0.009018
vn -0.308147 0.057819 0.949580
v -0.009577 0.005560 0.009356
vn -0.067302 0.019991 -0.997532
v -0.009608 0.005567 -0.009529
vn -0.860540 -0.487618 0.147308
v -0.010933 -0.003409 0.008058
vn -0.748874 -0.662681 -0.006470
v -0.011222 -0.003035 0.002390
vn -0.908354 0.065160 -0.413094
v -0.010190 0.005822 -0.009122
vn -0.657907 0.008631 0.753050
v -0.010016 -0.002335 0.009117
vn -0.989321 0.008400 0.145512
v -0.012090 -0.001816 0.003461
vn -0.734153 0.008526 -0.678931
v -0.010122 -0.002138 -0.009306
vn -0.974733 0.005029 -0.223318
v -0.011703 -0.002348 -0.005473
vn -0.037048 0.015590 -0.999192
v -0.001077 -0.006189 -0.009703
vn 0.047464 0.010383 0.998819
v 0.000920 -0.002990 0.010225
vn 0.267002 0.068966 0.961225
v 0.008924 0.009245 0.007922
vn 0.303126 0.143905 -0.942022
v 0.004738 0.009912 -0.009723
vn 0.187739 0.079407 -0.979004
v 0.003906 0.009438 -0.009970
vn 0.981173 -0.193124 0.001338
v 0.006846 -0.000040 -0.008899
vn -0.078439 0.023771 0.996635
v -0.005684 0.004940 0.010295
vn -0.736480 -0.543859 -0.402263
v -0.010098 -0.003867 -0.009346
vn 0.657509 -0.117709 0.744196
v 0.008833 0.006217 0.008297
vn 0.988732 0.125226 0.082017
v 0.010605 0.010316 0.004444
vn 0.644433 -0.107676 -0.757042
v 0.008832 0.006227 -0.008489
vn 0.456361 -0.888677 -0.044590
v 0.009761 0.006348 0.005711
vn 0.383649 -0.919374 0.086982
v 0.009764 0.006389 -0.005266
vn 0.972220 -0.046202 0.229464
v 0.006765 -0.000095 0.009201
vn 0.971387 -0.045333 -0.233137
v 0.006773 -0.000019 -0.009197
vn -0.730599 -0.514344 0.449084
v -0.010212 -0.003854 0.009037
vn -0.990601 0.121085 0.063617
v -0.011031 0.007176 0.004798
vn -0.751307 -0.659900 0.008312
v -0.011102 -0.003185 -0.004953
# 158 vertices, 0 vertices normals

f 11//11 42//42 84//84
f 22//22 51//51 81//81
f 18//18 44//44 111//111
f 24//24 82//82 74//74
f 20//20 48//48 75//75
f 1//1 43//43 141//141
f 17//17 91//91 62//62
f 9//9 57//57 93//93
f 16//16 64//64 66//66
f 16//16 66//66 68//68
f 15//15 67//67 63//63
f 1//1 54//54 94//94
f 9//9 95//95 57//57
f 2//2 70//70 45//45
f 12//12 55//55 58//58
f 22//22 83//83 107//107
f 5//5 77//77 50//50
f 19//19 46//46 79//79
f 5//5 44//44 77//77
f 12//12 59//59 55//55
f 8//8 53//53 85//85
f 19//19 73//73 113//113
f 23//23 52//52 87//87
f 7//7 53//53 88//88
f 18//18 114//114 80//80
f 1//1 89//89 90//90
f 14//14 61//61 65//65
f 9//9 56//56 92//92
f 10//10 56//56 58//58
f 4//4 43//43 47//47
f 16//16 54//54 64//64
f 29//29 116//116 119//119
f 35//35 128//128 98//98
f 35//35 98//98 146//146
f 19//19 79//79 100//100
f 24//24 74//74 147//147
f 13//13 103//103 63//63
f 37//37 132//132 137//137
f 39//39 138//138 134//134
f 38//38 72//72 148//148
f 40//40 105//105 140//140
f 8//8 51//51 49//49
f 22//22 81//81 108//108
f 6//6 78//78 109//109
f 18//18 80//80 110//110
f 5//5 50//50 112//112
f 6//6 46//46 86//86
f 34//34 125//125 130//130
f 18//18 73//73 117//117
f 18//18 117//117 99//99
f 30//30 120//120 126//126
f 30//30 126//126 153//153
f 9//9 97//97 154//154
f 1//1 69//69 96//96
f 3//3 71//71 102//102
f 20//20 75//75 157//157
f 21//21 133//133 136//136
f 10//10 135//135 60//60
f 21//21 89//89 133//133
f 33//33 124//124 143//143
f 3//3 142//142 100//100
f 27//27 123//123 144//144
f 32//32 69//69 145//145
f 36//36 129//129 118//118
f 3//3 101//101 71//71
f 41//41 139//139 106//106
f 29//29 119//119 149//149
f 19//19 116//116 150//150
f 36//36 131//131 127//127
f 29//29 125//125 152//152
f 31//31 122//122 127//127
f 2//2 95//95 70//70
f 32//32 131//131 155//155
f 37//37 137//137 156//156
f 39//39 104//104 138//138
f 40//40 140//140 158//158
f 84//84 45//45 3//3
f 84//84 42//42 45//45
f 42//42 2//2 45//45
f 81//81 85//85 23//23
f 81//81 51//51 85//85
f 51//51 8//8 85//85
f 111//111 112//112 26//26
f 111//111 44//44 112//112
f 44//44 5//5 112//112
f 74//74 87//87 20//20
f 74//74 82//82 87//87
f 82//82 23//23 87//87
f 75//75 88//88 21//21
f 75//75 48//48 88//88
f 48//48 7//7 88//88
f 141//141 72//72 38//38
f 141//141 43//43 72//72
f 43//43 4//4 72//72
f 62//62 60//60 13//13
f 62//62 91//91 60//60
f 91//91 10//10 60//60
f 93//93 59//59 12//12
f 93//93 57//57 59//59
f 57//57 11//11 59//59
f 66//66 65//65 17//17
f 66//66 64//64 65//65
f 64//64 14//14 65//65
f 68//68 67//67 15//15
f 68//68 66//66 67//67
f 66//66 17//17 67//67
f 63//63 62//62 13//13
f 63//63 67//67 62//62
f 67//67 17//17 62//62
f 94//94 68//68 15//15
f 94//94 54//54 68//68
f 54//54 16//16 68//68
f 57//57 42//42 11//11
f 57//57 95//95 42//42
f 95//95 2//2 42//42
f 45//45 142//142 3//3
f 45//45 70//70 142//142
f 70//70 33//33 142//142
f 58//58 102//102 10//10
f 58//58 55//55 102//102
f 55//55 3//3 102//102
f 107//107 76//76 21//21
f 107//107 83//83 76//76
f 83//83 25//25 76//76
f 50//50 108//108 6//6
f 50//50 77//77 108//108
f 77//77 22//22 108//108
f 79//79 109//109 24//24
f 79//79 46//46 109//109
f 46//46 6//6 109//109
f 77//77 110//110 22//22
f 77//77 44//44 110//110
f 44//44 18//18 110//110
f 55//55 84//84 3//3
f 55//55 59//59 84//84
f 59//59 11//11 84//84
f 85//85 52//52 23//23
f 85//85 53//53 52//52
f 53//53 7//7 52//52
f 113//113 111//111 26//26
f 113//113 73//73 111//111
f 73//73 18//18 111//111
f 87//87 48//48 20//20
f 87//87 52//52 48//48
f 52//52 7//7 48//48
f 88//88 49//49 21//21
f 88//88 53//53 49//49
f 53//53 8//8 49//49
f 80//80 144//144 25//25
f 80//80 114//114 144//144
f 114//114 27//27 144//144
f 90//90 76//76 25//25
f 90//90 89//89 76//76
f 89//89 21//21 76//76
f 65//65 92//92 17//17
f 65//65 61//61 92//92
f 61//61 9//9 92//92
f 92//92 91//91 17//17
f 92//92 56//56 91//91
f 56//56 10//10 91//91
f 58//58 93//93 12//12
f 58//58 56//56 93//93
f 56//56 9//9 93//93
f 47//47 94//94 15//15
f 47//47 43//43 94//94
f 43//43 1//1 94//94
f 64//64 96//96 14//14
f 64//64 54//54 96//96
f 54//54 1//1 96//96
f 119//119 116//116 115//115
f 116//116 19//19 115//115
f 98//98 97//97 9//9
f 98//98 128//128 97//97
f 128//128 34//34 97//97
f 121//121 99//99 31//31
f 121//121 114//114 99//99
f 114//114 18//18 99//99
f 146//146 61//61 14//14
f 146//146 98//98 61//61
f 98//98 9//9 61//61
f 100//100 101//101 3//3
f 100//100 79//79 101//101
f 79//79 24//24 101//101
f 147//147 132//132 37//37
f 147//147 74//74 132//132
f 74//74 20//20 132//132
f 63//63 47//47 15//15
f 63//63 103//103 47//47
f 103//103 4//4 47//47
f 137//137 104//104 39//39
f 137//137 132//132 104//104
f 132//132 20//20 104//104
f 134//134 135//135 10//10
f 134//134 138//138 135//135
f 138//138 40//40 135//135
f 148//148 103//103 13//13
f 148//148 72//72 103//103
f 72//72 4//4 103//103
f 140//140 136//136 41//41
f 140//140 105//105 136//136
f 105//105 21//21 136//136
f 49//49 107//107 21//21
f 49//49 51//51 107//107
f 51//51 22//22 107//107
f 108//108 78//78 6//6
f 108//108 81//81 78//78
f 81//81 23//23 78//78
f 109//109 82//82 24//24
f 109//109 78//78 82//82
f 78//78 23//23 82//82
f 110//110 83//83 22//22
f 110//110 80//80 83//83
f 80//80 25//25 83//83
f 112//112 86//86 26//26
f 112//112 50//50 86//86
f 50//50 6//6 86//86
f 86//86 113//113 26//26
f 86//86 46//46 113//113
f 46//46 19//19 113//113
f 130//130 149//149 33//33
f 130//130 125//125 149//149
f 125//125 29//29 149//149
f 117//117 150//150 30//30
f 117//117 73//73 150//150
f 73//73 19//19 150//150
f 151//151 121//121 31//31
f 99//99 122//122 31//31
f 99//99 117//117 122//122
f 117//117 30//30 122//122
f 126//126 152//152 35//35
f 126//126 120//120 152//152
f 120//120 29//29 152//152
f 153//153 129//129 36//36
f 153//153 126//126 129//129
f 126//126 35//35 129//129
f 154//154 130//130 33//33
f 154//154 97//97 130//130
f 97//97 34//34 130//130
f 96//96 155//155 14//14
f 96//96 69//69 155//155
f 69//69 32//32 155//155
f 102//102 156//156 10//10
f 102//102 71//71 156//156
f 71//71 37//37 156//156
f 157//157 105//105 40//40
f 157//157 75//75 105//105
f 75//75 21//21 105//105
f 136//136 139//139 41//41
f 136//136 133//133 139//139
f 133//133 38//38 139//139
f 60//60 158//158 13//13
f 60//60 135//135 158//158
f 135//135 40//40 158//158
f 133//133 141//141 38//38
f 133//133 89//89 141//141
f 89//89 1//1 141//141
f 143//143 115//115 19//19
f 143//143 124//124 115//115
f 124//124 28//28 115//115
f 100//100 143//143 19//19
f 100//100 142//142 143//143
f 142//142 33//33 143//143
f 144//144 145//145 25//25
f 144//144 123//123 145//145
f 123//123 32//32 145//145
f 145//145 90//90 25//25
f 145//145 69//69 90//90
f 69//69 1//1 90//90
f 118//118 146//146 14//14
f 118//118 129//129 146//146
f 129//129 35//35 146//146
f 71//71 147//147 37//37
f 71//71 101//101 147//147
f 101//101 24//24 147//147
f 106//106 148//148 13//13
f 106//106 139//139 148//148
f 139//139 38//38 148//148
f 150//150 120//120 30//30
f 150//150 116//116 120//120
f 116//116 29//29 120//120
f 127//127 151//151 31//31
f 127//127 131//131 151//151
f 131//131 32//32 151//151
f 152//152 128//128 35//35
f 152//152 125//125 128//128
f 125//125 34//34 128//128
f 127//127 153//153 36//36
f 127//127 122//122 153//153
f 122//122 30//30 153//153
f 70//70 154//154 33//33
f 70//70 95//95 154//154
f 95//95 9//9 154//154
f 155//155 118//118 14//14
f 155//155 131//131 118//118
f 131//131 36//36 118//118
f 156//156 134//134 10//10
f 156//156 137//137 134//134
f 137//137 39//39 134//134
f 138//138 157//157 40//40
f 138//138 104//104 157//157
f 104//104 20//20 157//157
f 158//158 106//106 13//13
f 158//158 140//140 106//106
f 140//140 41//41 106//106
# 304 faces, 0 coords texture

# End of File