####
#
# OBJ File Generated by Meshlab
#
####
# Object backmesh_with_hole.obj
#
# Vertices: 18
# Faces: 22
#
####
vn -1.570796 0.000000 0.000000
v -3.450000 1.100000 3.450000
vn -1.570796 0.000000 0.000000
v -3.450000 0.650000 3.450000
vn -1.570796 0.000000 0.000000
v -3.450000 1.100000 0.549998
vn -1.570796 0.000000 0.000000
v -3.450000 0.650000 0.549998
vn -1.570796 4.712389 0.000000
v -3.450000 1.100000 3.450000
vn -1.570796 0.000000 0.000000
v -3.450000 0.650000 3.450000
vn -1.570796 4.712389 0.000000
v -3.450000 1.100000 0.549998
vn -1.570796 0.000000 0.000000
v -3.450000 0.650000 0.549998
vn 0.000000 4.712389 0.000000
v -1.750000 1.100000 3.450000
vn 0.000000 4.712389 0.000000
v -1.750000 1.100000 0.549998
vn -1.570796 -1.570796 1.570796
v -4.750000 -1.100000 4.750000
vn -1.570796 1.570796 1.570796
v -4.750000 1.100000 4.750000
vn -1.570796 -1.570796 -1.570796
v -4.750000 -1.100000 -4.750000
vn -1.570796 1.570796 -1.570796
v -4.750000 1.100000 -4.750000
vn 1.570796 -1.570796 1.570796
v 4.750000 -1.100000 4.750000
vn 1.570796 1.570796 1.570796
v 4.750000 1.100000 4.750000
vn 1.570796 -1.570796 -1.570796
v 4.750000 -1.100000 -4.750000
vn 1.570796 1.570796 -1.570796
v 4.750000 1.100000 -4.750000
# 18 vertices, 0 vertices normals

f 2//2 1//1 3//3
f 2//2 3//3 4//4
f 6//6 5//5 7//7
f 6//6 7//7 8//8
f 12//12 13//13 11//11
f 14//14 17//17 13//13
f 18//18 15//15 17//17
f 16//16 11//11 15//15
f 17//17 11//11 13//13
f 14//14 16//16 18//18
f 12//12 14//14 13//13
f 14//14 18//18 17//17
f 18//18 16//16 15//15
f 16//16 12//12 11//11
f 17//17 15//15 11//11
f 14//14 7//7 10//10
f 16//16 9//9 12//12
f 14//14 12//12 7//7
f 12//12 5//5 7//7
f 10//10 16//16 14//14
f 16//16 10//10 9//9
f 9//9 5//5 12//12
# 22 faces, 0 coords texture

# End of File