####
#
# OBJ File Generated by Meshlab
#
####
# Object cylindermesh_small.obj
#
# Vertices: 136
# Faces: 268
#
####
vn -0.000007 2.945244 -3.126467
v -1.159000 1.923750 -0.123500
vn 0.609941 2.945239 -3.066387
v -1.134906 1.923750 -0.121127
vn 1.196482 2.945220 -2.888458
v -1.111738 1.923750 -0.114099
vn 1.736976 2.945300 -2.599588
v -1.090387 1.923750 -0.102686
vn 2.210708 2.945209 -2.210774
v -1.071672 1.923750 -0.087328
vn 2.599582 2.945214 -1.736923
v -1.056313 1.923750 -0.068613
vn 2.888405 2.945287 -1.196397
v -1.044901 1.923750 -0.047261
vn 3.066385 2.945227 -0.609959
v -1.037873 1.923750 -0.024094
vn 3.126466 2.945247 0.000000
v -1.035500 1.923750 -0.000000
vn 3.066385 2.945227 0.609959
v -1.037873 1.923750 0.024094
vn 2.888405 2.945287 1.196397
v -1.044901 1.923750 0.047261
vn 2.599582 2.945214 1.736923
v -1.056313 1.923750 0.068613
vn 2.210746 2.945240 2.210742
v -1.071672 1.923750 0.087328
vn 1.736949 2.945231 2.599565
v -1.090387 1.923750 0.102687
vn 1.196431 2.945256 2.888485
v -1.111738 1.923750 0.114099
vn 0.609941 2.945239 3.066387
v -1.134906 1.923750 0.121127
vn 0.000000 2.945248 3.126467
v -1.159000 1.923750 0.123500
vn -0.609959 2.945227 3.066380
v -1.183094 1.923750 0.121127
vn -1.196476 2.945252 2.888467
v -1.206261 1.923750 0.114099
vn -1.736935 2.945282 2.599584
v -1.227613 1.923750 0.102686
vn -2.210738 2.945176 2.210737
v -1.246328 1.923750 0.087328
vn -2.599587 2.945280 1.736933
v -1.261686 1.923750 0.068613
vn -2.888377 2.945256 1.196452
v -1.273099 1.923750 0.047261
vn -3.066383 2.945222 0.609966
v -1.280127 1.923750 0.024094
vn -3.126466 2.945249 0.000000
v -1.282500 1.923750 -0.000000
vn -3.066389 2.945233 -0.609948
v -1.280127 1.923750 -0.024094
vn -2.888367 2.945227 -1.196461
v -1.273099 1.923750 -0.047262
vn -2.599573 2.945299 -1.736961
v -1.261686 1.923750 -0.068613
vn -2.210777 2.945210 -2.210706
v -1.246328 1.923750 -0.087328
vn -1.736938 2.945213 -2.599597
v -1.227613 1.923750 -0.102687
vn -1.196406 2.945277 -2.888499
v -1.206261 1.923750 -0.114099
vn -0.609947 2.945244 -3.066386
v -1.183093 1.923750 -0.121127
vn -2.945264 -0.000000 -3.126466
v -1.368000 0.000000 -0.237500
vn 2.945266 0.000000 -3.126466
v 1.368000 -0.000000 -0.237500
vn -2.945212 -0.609957 -3.066381
v -1.368000 -0.046334 -0.232937
vn 2.945212 -0.609956 -3.066381
v 1.368000 -0.046334 -0.232937
vn -2.945274 -1.196462 -2.888474
v -1.368000 -0.090887 -0.219421
vn 2.945275 -1.196461 -2.888474
v 1.368000 -0.090887 -0.219421
vn -2.945235 -1.736951 -2.599571
v -1.368000 -0.131948 -0.197474
vn 2.945236 -1.736950 -2.599571
v 1.368000 -0.131948 -0.197474
vn -2.945236 -2.210742 -2.210742
v -1.368000 -0.167938 -0.167938
vn 2.945235 -2.210742 -2.210742
v 1.368000 -0.167938 -0.167938
vn -2.945236 -2.599571 -1.736950
v -1.368000 -0.197474 -0.131948
vn 2.945236 -2.599570 -1.736951
v 1.368000 -0.197474 -0.131948
vn -2.945253 -2.888483 -1.196430
v -1.368000 -0.219421 -0.090887
vn 2.945274 -2.888474 -1.196461
v 1.368000 -0.219421 -0.090887
vn -2.945255 -3.066387 -0.609959
v -1.368000 -0.232936 -0.046334
vn 2.945211 -3.066381 -0.609957
v 1.368000 -0.232937 -0.046334
vn -2.945222 -3.126460 0.000001
v -1.368000 -0.237500 -0.000000
vn 2.945266 -3.126466 0.000000
v 1.368000 -0.237500 -0.000000
vn -2.945255 -3.066387 0.609959
v -1.368000 -0.232936 0.046334
vn 2.945211 -3.066381 0.609956
v 1.368000 -0.232937 0.046334
vn -2.945254 -2.888483 1.196431
v -1.368000 -0.219421 0.090887
vn 2.945275 -2.888474 1.196461
v 1.368000 -0.219421 0.090887
vn -2.945236 -2.599571 1.736951
v -1.368000 -0.197474 0.131948
vn 2.945236 -2.599571 1.736950
v 1.368000 -0.197474 0.131948
vn -2.945236 -2.210742 2.210742
v -1.368000 -0.167938 0.167938
vn 2.945235 -2.210742 2.210742
v 1.368000 -0.167938 0.167938
vn -2.945235 -1.736950 2.599571
v -1.368000 -0.131948 0.197474
vn 2.945236 -1.736951 2.599570
v 1.368000 -0.131948 0.197474
vn -2.945274 -1.196461 2.888474
v -1.368000 -0.090887 0.219421
vn 2.945274 -1.196462 2.888474
v 1.368000 -0.090887 0.219421
vn -2.945212 -0.609956 3.066381
v -1.368000 -0.046334 0.232937
vn 2.945212 -0.609957 3.066381
v 1.368000 -0.046334 0.232937
vn -2.945243 0.000034 3.126463
v -1.368000 0.000000 0.237500
vn 2.945243 0.000033 3.126463
v 1.368000 0.000000 0.237500
vn -2.945254 0.609959 3.066387
v -1.368000 0.046334 0.232936
vn 2.945254 0.609959 3.066388
v 1.368000 0.046334 0.232936
vn -2.945253 1.196431 2.888484
v -1.368000 0.090887 0.219421
vn 2.945254 1.196430 2.888484
v 1.368000 0.090887 0.219421
vn -2.945238 1.736951 2.599571
v -1.368000 0.131948 0.197474
vn 2.945236 1.736950 2.599571
v 1.368000 0.131948 0.197474
vn -2.945236 2.210742 2.210742
v -1.368000 0.167938 0.167938
vn 2.945235 2.210742 2.210742
v 1.368000 0.167938 0.167938
vn -2.945254 2.599555 1.736976
v -1.368000 0.197474 0.131948
vn 2.945237 2.599536 1.736933
v 1.368000 0.197474 0.131948
vn -2.945224 2.888475 1.196450
v -1.368000 0.219422 0.090887
vn 2.945256 2.888129 1.196323
v 1.368000 0.219421 0.090887
vn -2.945219 3.066394 0.609932
v -1.368000 0.232937 0.046334
vn 2.945254 3.066377 0.609958
v 1.368000 0.232936 0.046334
vn -2.945258 3.126468 -0.000000
v -1.368000 0.237500 -0.000000
vn 2.945222 3.126462 0.000000
v 1.368000 0.237500 -0.000000
vn -2.945208 3.066384 -0.609950
v -1.368000 0.232937 -0.046334
vn 2.945261 3.066380 -0.609949
v 1.368000 0.232936 -0.046334
vn -2.945252 2.888471 -1.196462
v -1.368000 0.219421 -0.090888
vn 2.945239 2.888597 -1.196472
v 1.368000 0.219421 -0.090888
vn -2.945247 2.599560 -1.736964
v -1.368000 0.197474 -0.131948
vn 2.945247 2.599527 -1.736945
v 1.368000 0.197474 -0.131948
vn -2.945235 2.210742 -2.210742
v -1.368000 0.167938 -0.167938
vn 2.945235 2.210742 -2.210742
v 1.368000 0.167938 -0.167938
vn -2.945255 1.736977 -2.599557
v -1.368000 0.131948 -0.197474
vn 2.945255 1.736977 -2.599556
v 1.368000 0.131948 -0.197474
vn -2.945234 1.196456 -2.888469
v -1.368000 0.090887 -0.219422
vn 2.945235 1.196457 -2.888469
v 1.368000 0.090887 -0.219422
vn -2.945233 0.609926 -3.066391
v -1.368000 0.046334 -0.232937
vn 2.945232 0.609926 -3.066391
v 1.368000 0.046334 -0.232937
vn -1.124723 2.959045 -4.399602
v -1.206261 0.207014 -0.114099
vn -0.000007 2.966746 -4.608186
v -1.159000 0.201990 -0.123500
vn -0.570417 2.964837 -4.555633
v -1.183093 0.203258 -0.121127
vn -2.547091 3.190920 2.727750
v -1.261686 0.226178 0.068613
vn -2.153032 3.194344 3.180211
v -1.246328 0.220501 0.087328
vn -2.847676 3.187412 2.206415
v -1.273099 0.232655 0.047261
vn -1.645958 2.950984 4.141963
v -1.227613 0.213115 0.102686
vn -3.186971 3.045281 1.633140
v -1.273381 0.232937 0.046334
vn -0.000001 2.966742 4.608187
v -1.159000 0.201990 0.123500
vn 0.570410 2.964919 4.555506
v -1.134906 0.203258 0.121127
vn -2.079726 2.787889 3.867789
v -1.241990 0.219422 0.090887
vn -0.570412 2.964843 4.555633
v -1.183094 0.203258 0.121127
vn 3.059075 3.320993 -0.954652
v -1.037873 0.235127 -0.024094
vn 2.153295 3.194035 -3.180569
v -1.071672 0.220501 -0.087328
vn 1.645923 2.950954 -4.142029
v -1.090387 0.213115 -0.102686
vn 2.079700 2.788088 -3.867712
v -1.076010 0.219421 -0.090888
vn 1.124741 2.959045 4.399570
v -1.111739 0.207014 0.114099
vn 2.847703 3.187374 -2.206371
v -1.044901 0.232655 -0.047261
vn 3.186946 3.045292 -1.633111
v -1.044619 0.232937 -0.046334
vn -2.547085 3.190895 -2.727790
v -1.261686 0.226178 -0.068613
vn -2.153318 3.194063 -3.180542
v -1.246328 0.220501 -0.087328
vn 0.570410 2.964919 -4.555506
v -1.134906 0.203258 -0.121127
vn -2.848319 3.188653 -2.204982
v -1.273099 0.232655 -0.047262
vn -2.079778 2.788077 -3.867600
v -1.241990 0.219421 -0.090888
vn 2.847704 3.187374 2.206371
v -1.044901 0.232655 0.047261
vn 3.186946 3.045292 1.633111
v -1.044619 0.232937 0.046334
vn 3.059075 3.320993 0.954652
v -1.037873 0.235127 0.024094
vn 2.547085 3.190978 2.727775
v -1.056313 0.226178 0.068613
vn 3.320932 3.320924 0.000000
v -1.035500 0.237500 -0.000000
vn -3.059070 3.320998 0.954660
v -1.280127 0.235127 0.024094
vn -1.645905 2.951002 -4.142079
v -1.227613 0.213115 -0.102687
vn -1.124791 2.959098 4.399570
v -1.206262 0.207014 0.114099
vn -3.320931 3.320930 0.000000
v -1.282500 0.237500 -0.000000
vn 2.547084 3.190978 -2.727775
v -1.056313 0.226178 -0.068613
vn 2.153015 3.194315 3.180237
v -1.071672 0.220501 0.087328
vn 2.079787 2.787894 3.867653
v -1.076010 0.219422 0.090887
vn 1.645929 2.951012 4.142110
v -1.090387 0.213115 0.102687
vn -3.059050 3.321035 -0.954725
v -1.280127 0.235127 -0.024094
vn -3.187443 3.044281 -1.630061
v -1.273380 0.232937 -0.046334
vn 1.124786 2.959081 -4.399548
v -1.111739 0.207014 -0.114099
# 136 vertices, 0 vertices normals

f 27//27 19//19 11//11
f 34//34 35//35 33//33
f 36//36 37//37 35//35
f 38//38 39//39 37//37
f 40//40 41//41 39//39
f 42//42 43//43 41//41
f 44//44 45//45 43//43
f 46//46 47//47 45//45
f 48//48 49//49 47//47
f 50//50 51//51 49//49
f 52//52 53//53 51//51
f 54//54 55//55 53//53
f 56//56 57//57 55//55
f 58//58 59//59 57//57
f 60//60 61//61 59//59
f 62//62 63//63 61//61
f 64//64 65//65 63//63
f 66//66 67//67 65//65
f 68//68 69//69 67//67
f 70//70 71//71 69//69
f 72//72 73//73 71//71
f 74//74 75//75 73//73
f 75//75 105//105 108//108
f 77//77 100//100 102//102
f 126//126 129//129 81//81
f 134//134 135//135 83//83
f 116//116 117//117 85//85
f 98//98 118//118 88//88
f 88//88 89//89 87//87
f 90//90 91//91 89//89
f 92//92 93//93 91//91
f 70//70 54//54 38//38
f 94//94 95//95 93//93
f 96//96 33//33 95//95
f 87//87 95//95 63//63
f 125//125 10//10 123//123
f 124//124 13//13 131//131
f 121//121 12//12 124//124
f 129//129 26//26 134//134
f 115//115 114//114 7//7
f 125//125 8//8 9//9
f 130//130 5//5 6//6
f 99//99 1//1 98//98
f 108//108 17//17 18//18
f 119//119 28//28 116//116
f 106//106 17//17 105//105
f 97//97 32//32 99//99
f 112//112 111//111 4//4
f 103//103 19//19 20//20
f 123//123 122//122 80//80
f 111//111 3//3 4//4
f 114//114 115//115 86//86
f 131//131 13//13 14//14
f 117//117 29//29 30//30
f 131//131 78//78 124//124
f 125//125 82//82 84//84
f 134//134 26//26 27//27
f 133//133 15//15 113//113
f 107//107 103//103 20//20
f 102//102 22//22 23//23
f 114//114 6//6 7//7
f 118//118 1//1 2//2
f 129//129 24//24 25//25
f 123//123 10//10 11//11
f 128//128 18//18 19//19
f 127//127 31//31 97//97
f 136//136 2//2 3//3
f 104//104 102//102 23//23
f 113//113 16//16 106//106
f 116//116 29//29 117//117
f 100//100 21//21 22//22
f 3//3 2//2 1//1
f 1//1 32//32 31//31
f 31//31 30//30 29//29
f 29//29 28//28 31//31
f 28//28 27//27 31//31
f 27//27 26//26 23//23
f 26//26 25//25 23//23
f 25//25 24//24 23//23
f 23//23 22//22 21//21
f 21//21 20//20 19//19
f 19//19 18//18 17//17
f 17//17 16//16 19//19
f 16//16 15//15 19//19
f 15//15 14//14 13//13
f 13//13 12//12 11//11
f 11//11 10//10 9//9
f 9//9 8//8 7//7
f 7//7 6//6 5//5
f 5//5 4//4 7//7
f 4//4 3//3 7//7
f 3//3 1//1 31//31
f 23//23 21//21 19//19
f 15//15 13//13 19//19
f 13//13 11//11 19//19
f 11//11 9//9 3//3
f 9//9 7//7 3//3
f 3//3 31//31 27//27
f 27//27 23//23 19//19
f 3//3 27//27 11//11
f 34//34 36//36 35//35
f 36//36 38//38 37//37
f 38//38 40//40 39//39
f 40//40 42//42 41//41
f 42//42 44//44 43//43
f 44//44 46//46 45//45
f 46//46 48//48 47//47
f 48//48 50//50 49//49
f 50//50 52//52 51//51
f 52//52 54//54 53//53
f 54//54 56//56 55//55
f 56//56 58//58 57//57
f 58//58 60//60 59//59
f 60//60 62//62 61//61
f 62//62 64//64 63//63
f 64//64 66//66 65//65
f 66//66 68//68 67//67
f 68//68 70//70 69//69
f 70//70 72//72 71//71
f 72//72 74//74 73//73
f 74//74 76//76 75//75
f 75//75 76//76 105//105
f 76//76 78//78 132//132
f 105//105 76//76 106//106
f 132//132 133//133 76//76
f 133//133 113//113 76//76
f 107//107 77//77 75//75
f 103//103 107//107 75//75
f 113//113 106//106 76//76
f 128//128 103//103 75//75
f 108//108 128//128 75//75
f 79//79 77//77 102//102
f 77//77 107//107 101//101
f 77//77 101//101 100//100
f 102//102 104//104 79//79
f 81//81 79//79 126//126
f 79//79 104//104 126//126
f 83//83 81//81 134//134
f 81//81 129//129 134//134
f 85//85 83//83 119//119
f 83//83 135//135 119//119
f 117//117 120//120 85//85
f 85//85 119//119 116//116
f 87//87 85//85 120//120
f 87//87 120//120 127//127
f 86//86 88//88 112//112
f 88//88 87//87 98//98
f 111//111 112//112 88//88
f 136//136 111//111 88//88
f 87//87 127//127 97//97
f 87//87 97//97 99//99
f 118//118 136//136 88//88
f 87//87 99//99 98//98
f 88//88 90//90 89//89
f 90//90 92//92 91//91
f 92//92 94//94 93//93
f 38//38 36//36 34//34
f 34//34 96//96 94//94
f 94//94 92//92 90//90
f 90//90 88//88 86//86
f 86//86 84//84 82//82
f 82//82 80//80 78//78
f 78//78 76//76 74//74
f 74//74 72//72 78//78
f 72//72 70//70 78//78
f 70//70 68//68 66//66
f 66//66 64//64 70//70
f 64//64 62//62 70//70
f 62//62 60//60 54//54
f 60//60 58//58 54//54
f 58//58 56//56 54//54
f 54//54 52//52 50//50
f 50//50 48//48 46//46
f 46//46 44//44 42//42
f 42//42 40//40 38//38
f 38//38 34//34 86//86
f 34//34 94//94 86//86
f 94//94 90//90 86//86
f 86//86 82//82 78//78
f 54//54 50//50 46//46
f 46//46 42//42 54//54
f 42//42 38//38 54//54
f 86//86 78//78 38//38
f 78//78 70//70 38//38
f 70//70 62//62 54//54
f 94//94 96//96 95//95
f 96//96 34//34 33//33
f 95//95 33//33 35//35
f 35//35 37//37 39//39
f 39//39 41//41 43//43
f 43//43 45//45 47//47
f 47//47 49//49 51//51
f 51//51 53//53 47//47
f 53//53 55//55 47//47
f 55//55 57//57 59//59
f 59//59 61//61 63//63
f 63//63 65//65 67//67
f 67//67 69//69 71//71
f 71//71 73//73 75//75
f 75//75 77//77 71//71
f 77//77 79//79 71//71
f 79//79 81//81 83//83
f 83//83 85//85 79//79
f 85//85 87//87 79//79
f 87//87 89//89 95//95
f 89//89 91//91 95//95
f 91//91 93//93 95//95
f 95//95 35//35 39//39
f 39//39 43//43 95//95
f 43//43 47//47 95//95
f 55//55 59//59 63//63
f 63//63 67//67 71//71
f 47//47 55//55 95//95
f 55//55 63//63 95//95
f 63//63 71//71 79//79
f 79//79 87//87 63//63
f 125//125 9//9 10//10
f 124//124 12//12 13//13
f 121//121 11//11 12//12
f 129//129 25//25 26//26
f 8//8 109//109 7//7
f 109//109 115//115 7//7
f 125//125 109//109 8//8
f 130//130 110//110 5//5
f 99//99 32//32 1//1
f 108//108 105//105 17//17
f 119//119 27//27 28//28
f 106//106 16//16 17//17
f 97//97 31//31 32//32
f 5//5 110//110 4//4
f 110//110 112//112 4//4
f 103//103 128//128 19//19
f 82//82 125//125 80//80
f 125//125 123//123 80//80
f 111//111 136//136 3//3
f 86//86 112//112 110//110
f 86//86 110//110 130//130
f 115//115 84//84 86//86
f 86//86 130//130 114//114
f 14//14 133//133 132//132
f 132//132 131//131 14//14
f 30//30 127//127 120//120
f 120//120 117//117 30//30
f 80//80 122//122 78//78
f 122//122 121//121 78//78
f 121//121 124//124 78//78
f 132//132 78//78 131//131
f 84//84 115//115 109//109
f 109//109 125//125 84//84
f 27//27 119//119 135//135
f 135//135 134//134 27//27
f 133//133 14//14 15//15
f 21//21 101//101 20//20
f 101//101 107//107 20//20
f 102//102 100//100 22//22
f 114//114 130//130 6//6
f 118//118 98//98 1//1
f 129//129 126//126 24//24
f 11//11 121//121 122//122
f 122//122 123//123 11//11
f 128//128 108//108 18//18
f 127//127 30//30 31//31
f 136//136 118//118 2//2
f 24//24 126//126 23//23
f 126//126 104//104 23//23
f 113//113 15//15 16//16
f 116//116 28//28 29//29
f 100//100 101//101 21//21
# 268 faces, 0 coords texture

# End of File