####
#
# OBJ File Generated by Meshlab
#
####
# Object doormesh_in_handle.obj
#
# Vertices: 72
# Faces: 136
#
####
vn -2.945245 0.000006 -3.126466
v -1.437501 1.168500 -2.368501
vn 2.945245 0.000006 -3.126465
v -0.297501 1.168500 -2.368501
vn -2.945269 -0.609895 -3.066404
v -1.437501 1.144406 -2.366128
vn 2.945280 -0.609879 -3.066410
v -0.297501 1.144406 -2.366128
vn -2.945206 -1.196415 -2.888483
v -1.437501 1.121239 -2.359101
vn 2.945177 -1.196424 -2.888474
v -0.297501 1.121238 -2.359101
vn -2.945256 -1.736980 -2.599557
v -1.437501 1.099887 -2.347688
vn 2.945273 -1.737005 -2.599543
v -0.297501 1.099887 -2.347688
vn -2.945238 -2.210743 -2.210745
v -1.437501 1.081172 -2.332329
vn 2.945239 -2.210743 -2.210744
v -0.297501 1.081172 -2.332329
vn -2.945233 -2.599573 -1.736949
v -1.437501 1.065813 -2.313614
vn 2.945232 -2.599574 -1.736950
v -0.297501 1.065813 -2.313614
vn -2.945257 -2.888487 -1.196429
v -1.437501 1.054401 -2.292263
vn 2.945257 -2.888486 -1.196429
v -0.297501 1.054401 -2.292263
vn -2.945243 -3.066389 -0.609948
v -1.437501 1.047373 -2.269095
vn 2.945245 -3.066390 -0.609948
v -0.297501 1.047373 -2.269095
vn -2.945236 -3.126463 0.000005
v -1.437501 1.045000 -2.245001
vn 2.945235 -3.126464 0.000005
v -0.297501 1.045000 -2.245001
vn -2.945245 -3.066389 0.609957
v -1.437501 1.047373 -2.220908
vn 2.945245 -3.066388 0.609957
v -0.297501 1.047373 -2.220908
vn -2.945265 -2.888489 1.196427
v -1.437501 1.054401 -2.197740
vn 2.945265 -2.888489 1.196427
v -0.297501 1.054401 -2.197740
vn -2.945221 -2.599571 1.736951
v -1.437501 1.065813 -2.176389
vn 2.945222 -2.599570 1.736950
v -0.297501 1.065813 -2.176389
vn -2.945251 -2.210746 2.210744
v -1.437501 1.081172 -2.157674
vn 2.945252 -2.210746 2.210744
v -0.297501 1.081172 -2.157674
vn -2.945239 -1.736977 2.599555
v -1.437501 1.099887 -2.142315
vn 2.945239 -1.736977 2.599555
v -0.297501 1.099887 -2.142315
vn -2.945261 -1.196474 2.888468
v -1.437501 1.121239 -2.130902
vn 2.945261 -1.196475 2.888469
v -0.297501 1.121239 -2.130902
vn -2.945222 -0.609966 3.066383
v -1.437501 1.144406 -2.123874
vn 2.945222 -0.609966 3.066382
v -0.297501 1.144406 -2.123874
vn -2.945249 -0.000001 3.126466
v -1.437501 1.168500 -2.121501
vn 2.945250 -0.000001 3.126465
v -0.297501 1.168500 -2.121501
vn -2.945219 0.609968 3.066382
v -1.437501 1.192594 -2.123874
vn 2.945220 0.609968 3.066383
v -0.297501 1.192594 -2.123874
vn -2.945265 1.196474 2.888470
v -1.437501 1.215761 -2.130902
vn 2.945266 1.196473 2.888469
v -0.297501 1.215761 -2.130902
vn -2.945236 1.736973 2.599557
v -1.437501 1.237113 -2.142315
vn 2.945237 1.736973 2.599557
v -0.297501 1.237113 -2.142315
vn -2.945217 2.210780 2.210703
v -1.437501 1.255828 -2.157674
vn 2.945217 2.210780 2.210703
v -0.297501 1.255828 -2.157674
vn -2.945294 2.599576 1.736963
v -1.437501 1.271186 -2.176389
vn 2.945295 2.599575 1.736963
v -0.297501 1.271186 -2.176389
vn -2.945225 2.888460 1.196481
v -1.437501 1.282599 -2.197740
vn 2.945226 2.888459 1.196481
v -0.297501 1.282599 -2.197740
vn -2.945240 3.066389 0.609951
v -1.437501 1.289627 -2.220908
vn 2.945241 3.066388 0.609951
v -0.297501 1.289627 -2.220908
vn -2.945235 3.126463 -0.000008
v -1.437501 1.292000 -2.245002
vn 2.945235 3.126464 -0.000008
v -0.297501 1.292000 -2.245002
vn -2.945249 3.066390 -0.609954
v -1.437501 1.289627 -2.269095
vn 2.945249 3.066389 -0.609954
v -0.297501 1.289627 -2.269095
vn -2.945218 2.888457 -1.196483
v -1.437501 1.282599 -2.292263
vn 2.945219 2.888458 -1.196483
v -0.297501 1.282599 -2.292263
vn -2.945307 2.599578 -1.736962
v -1.437501 1.271186 -2.313614
vn 2.945273 2.599545 -1.737003
v -0.297501 1.271186 -2.313614
vn -2.945202 2.210777 -2.210703
v -1.437501 1.255828 -2.332329
vn 2.945268 2.210777 -2.210717
v -0.297501 1.255827 -2.332329
vn -2.945253 1.736977 -2.599559
v -1.437501 1.237113 -2.347688
vn 2.945225 1.737010 -2.599530
v -0.297501 1.237113 -2.347688
vn -2.945196 1.196395 -2.888490
v -1.437501 1.215761 -2.359101
vn 2.945196 1.196396 -2.888490
v -0.297501 1.215761 -2.359101
vn -2.945284 0.609884 -3.066409
v -1.437501 1.192593 -2.366128
vn 2.945285 0.609884 -3.066410
v -0.297501 1.192593 -2.366128
vn 1.570796 -1.570796 -1.570796
v -1.675000 -0.000000 -0.060000
vn 1.570796 1.570796 -1.570796
v -1.675000 -0.427500 -0.060000
vn 1.570796 -1.570796 1.570796
v -1.675000 -0.000000 -2.815001
vn 1.570796 1.570796 1.570796
v -1.675000 -0.427500 -2.815001
vn -1.570796 -1.570796 -1.570796
v -0.060000 -0.000000 -0.060000
vn -1.570796 1.570796 -1.570796
v -0.060000 -0.427500 -0.060000
vn -1.570796 -1.570796 1.570796
v -0.060000 -0.000000 -2.815001
vn -1.570796 1.570796 1.570796
v -0.060000 -0.427500 -2.815001
# 72 vertices, 0 vertices normals

f 2//2 3//3 1//1
f 4//4 5//5 3//3
f 6//6 7//7 5//5
f 8//8 9//9 7//7
f 10//10 11//11 9//9
f 12//12 13//13 11//11
f 14//14 15//15 13//13
f 16//16 17//17 15//15
f 18//18 19//19 17//17
f 20//20 21//21 19//19
f 22//22 23//23 21//21
f 24//24 25//25 23//23
f 26//26 27//27 25//25
f 28//28 29//29 27//27
f 30//30 31//31 29//29
f 32//32 33//33 31//31
f 34//34 35//35 33//33
f 36//36 37//37 35//35
f 38//38 39//39 37//37
f 40//40 41//41 39//39
f 42//42 43//43 41//41
f 44//44 45//45 43//43
f 46//46 47//47 45//45
f 48//48 49//49 47//47
f 50//50 51//51 49//49
f 52//52 53//53 51//51
f 54//54 55//55 53//53
f 56//56 57//57 55//55
f 58//58 59//59 57//57
f 60//60 61//61 59//59
f 54//54 38//38 22//22
f 62//62 63//63 61//61
f 64//64 1//1 63//63
f 55//55 63//63 31//31
f 2//2 4//4 3//3
f 4//4 6//6 5//5
f 6//6 8//8 7//7
f 8//8 10//10 9//9
f 10//10 12//12 11//11
f 12//12 14//14 13//13
f 14//14 16//16 15//15
f 16//16 18//18 17//17
f 18//18 20//20 19//19
f 20//20 22//22 21//21
f 22//22 24//24 23//23
f 24//24 26//26 25//25
f 26//26 28//28 27//27
f 28//28 30//30 29//29
f 30//30 32//32 31//31
f 32//32 34//34 33//33
f 34//34 36//36 35//35
f 36//36 38//38 37//37
f 38//38 40//40 39//39
f 40//40 42//42 41//41
f 42//42 44//44 43//43
f 44//44 46//46 45//45
f 46//46 48//48 47//47
f 48//48 50//50 49//49
f 50//50 52//52 51//51
f 52//52 54//54 53//53
f 54//54 56//56 55//55
f 56//56 58//58 57//57
f 58//58 60//60 59//59
f 60//60 62//62 61//61
f 6//6 4//4 2//2
f 2//2 64//64 62//62
f 62//62 60//60 54//54
f 60//60 58//58 54//54
f 58//58 56//56 54//54
f 54//54 52//52 50//50
f 50//50 48//48 54//54
f 48//48 46//46 54//54
f 46//46 44//44 38//38
f 44//44 42//42 38//38
f 42//42 40//40 38//38
f 38//38 36//36 34//34
f 34//34 32//32 38//38
f 32//32 30//30 38//38
f 30//30 28//28 26//26
f 26//26 24//24 22//22
f 22//22 20//20 18//18
f 18//18 16//16 14//14
f 14//14 12//12 10//10
f 10//10 8//8 6//6
f 6//6 2//2 54//54
f 2//2 62//62 54//54
f 30//30 26//26 38//38
f 26//26 22//22 38//38
f 22//22 18//18 14//14
f 14//14 10//10 22//22
f 10//10 6//6 22//22
f 54//54 46//46 38//38
f 6//6 54//54 22//22
f 62//62 64//64 63//63
f 64//64 2//2 1//1
f 63//63 1//1 7//7
f 1//1 3//3 7//7
f 3//3 5//5 7//7
f 7//7 9//9 15//15
f 9//9 11//11 15//15
f 11//11 13//13 15//15
f 15//15 17//17 19//19
f 19//19 21//21 23//23
f 23//23 25//25 31//31
f 25//25 27//27 31//31
f 27//27 29//29 31//31
f 31//31 33//33 35//35
f 35//35 37//37 39//39
f 39//39 41//41 43//43
f 43//43 45//45 47//47
f 47//47 49//49 51//51
f 51//51 53//53 47//47
f 53//53 55//55 47//47
f 55//55 57//57 59//59
f 59//59 61//61 63//63
f 15//15 19//19 31//31
f 19//19 23//23 31//31
f 31//31 35//35 47//47
f 35//35 39//39 47//47
f 39//39 43//43 47//47
f 55//55 59//59 63//63
f 63//63 7//7 31//31
f 7//7 15//15 31//31
f 47//47 55//55 31//31
f 66//66 67//67 65//65
f 68//68 71//71 67//67
f 72//72 69//69 71//71
f 70//70 65//65 69//69
f 71//71 65//65 67//67
f 68//68 70//70 72//72
f 66//66 68//68 67//67
f 68//68 72//72 71//71
f 72//72 70//70 69//69
f 70//70 66//66 65//65
f 71//71 69//69 65//65
f 68//68 66//66 70//70
# 136 faces, 0 coords texture

# End of File