####
#
# OBJ File Generated by Meshlab
#
####
# Object doormesh_out_small.obj
#
# Vertices: 72
# Faces: 136
#
####
vn 0.000031 3.177639 -2.890270
v -0.850000 0.488305 -2.547571
vn 0.000005 3.074546 2.999403
v -0.850000 0.451655 -0.447891
vn 0.609860 3.117159 -2.891243
v -0.824638 0.485808 -2.547615
vn 0.610012 3.014830 2.998277
v -0.824638 0.449158 -0.447935
vn 1.196570 2.939754 -2.894405
v -0.800251 0.478411 -2.547744
vn 1.196452 2.836629 2.995235
v -0.800251 0.441761 -0.448064
vn 1.736952 2.650551 -2.899415
v -0.777776 0.466400 -2.547954
vn 1.736452 2.546991 2.990135
v -0.777776 0.429750 -0.448273
vn 2.210813 2.261803 -2.906202
v -0.758076 0.450235 -2.548236
vn 2.210781 2.159004 2.983370
v -0.758076 0.413585 -0.448556
vn 2.599365 1.787934 -2.914483
v -0.741909 0.430538 -2.548580
vn 2.598762 1.684730 2.975098
v -0.741909 0.393888 -0.448899
vn 2.888364 1.247576 -2.923941
v -0.729896 0.408066 -2.548972
vn 2.888491 1.144879 2.965703
v -0.729896 0.371416 -0.449292
vn 3.066408 0.661273 -2.934136
v -0.722498 0.383683 -2.549397
vn 3.065747 0.558361 2.955425
v -0.722498 0.347033 -0.449717
vn 3.126453 0.051439 -2.944791
v -0.720000 0.358325 -2.549840
vn 3.126453 -0.051391 2.944792
v -0.720000 0.321675 -0.450160
vn 3.066303 -0.558439 -2.955426
v -0.722498 0.332967 -2.550283
vn 3.067005 -0.661385 2.934135
v -0.722498 0.296317 -0.450603
vn 2.887485 -1.144502 -2.965694
v -0.729896 0.308584 -2.550709
vn 2.888480 -1.247662 2.923942
v -0.729896 0.271934 -0.451028
vn 2.599637 -1.685344 -2.975111
v -0.741909 0.286112 -2.551100
vn 2.599371 -1.787932 2.914483
v -0.741909 0.249462 -0.451420
vn 2.210717 -2.158913 -2.983366
v -0.758076 0.266415 -2.551444
vn 2.210751 -2.261783 2.906203
v -0.758076 0.229765 -0.451764
vn 1.736695 -2.547296 -2.990141
v -0.777776 0.250250 -2.551727
vn 1.736784 -2.650327 2.899416
v -0.777776 0.213600 -0.452046
vn 1.196564 -2.837034 -2.995239
v -0.800251 0.238239 -2.551936
vn 1.196454 -2.939456 2.894410
v -0.800251 0.201589 -0.452256
vn 0.609932 -3.014524 -2.998275
v -0.824638 0.230842 -2.552065
vn 0.609927 -3.117268 2.891243
v -0.824638 0.194192 -0.452385
vn -0.000001 -3.073925 -2.999391
v -0.850000 0.228345 -2.552109
vn -0.000022 -3.177624 2.890269
v -0.850000 0.191695 -0.452429
vn -0.609927 -3.014537 -2.998274
v -0.875362 0.230842 -2.552065
vn -0.609854 -3.117013 2.891248
v -0.875362 0.194192 -0.452385
vn -1.196569 -2.837042 -2.995239
v -0.899749 0.238239 -2.551936
vn -1.196494 -2.939404 2.894381
v -0.899749 0.201589 -0.452256
vn -1.736878 -2.547685 -2.990147
v -0.922224 0.250250 -2.551727
vn -1.736813 -2.650358 2.899481
v -0.922224 0.213601 -0.452046
vn -2.211072 -2.159224 -2.983373
v -0.941924 0.266415 -2.551444
vn -2.210726 -2.261850 2.906173
v -0.941924 0.229765 -0.451764
vn -2.599824 -1.685432 -2.975108
v -0.958091 0.286112 -2.551100
vn -2.599488 -1.787998 2.914478
v -0.958091 0.249462 -0.451420
vn -2.887481 -1.144497 -2.965696
v -0.970104 0.308584 -2.550709
vn -2.888466 -1.247647 2.923943
v -0.970104 0.271934 -0.451028
vn -3.066368 -0.558473 -2.955430
v -0.977502 0.332967 -2.550283
vn -3.066597 -0.661276 2.934139
v -0.977502 0.296317 -0.450603
vn -3.126462 0.051440 -2.944786
v -0.980000 0.358325 -2.549840
vn -3.126251 -0.051426 2.944786
v -0.980000 0.321675 -0.450160
vn -3.066742 0.661328 -2.934138
v -0.977502 0.383683 -2.549397
vn -3.065751 0.558364 2.955427
v -0.977502 0.347033 -0.449717
vn -2.888587 1.247687 -2.923942
v -0.970104 0.408066 -2.548972
vn -2.888479 1.144862 2.965706
v -0.970104 0.371416 -0.449292
vn -2.599572 1.788067 -2.914478
v -0.958091 0.430538 -2.548580
vn -2.598761 1.684730 2.975095
v -0.958091 0.393888 -0.448899
vn -2.211014 2.262041 -2.906200
v -0.941924 0.450235 -2.548236
vn -2.211055 2.159209 2.983374
v -0.941924 0.413585 -0.448556
vn -1.736927 2.650529 -2.899414
v -0.922224 0.466400 -2.547954
vn -1.736768 2.547552 2.990145
v -0.922224 0.429750 -0.448273
vn -1.196564 2.939741 -2.894405
v -0.899749 0.478411 -2.547744
vn -1.196467 2.836657 2.995234
v -0.899749 0.441761 -0.448064
vn -0.609927 3.117318 -2.891242
v -0.875362 0.485808 -2.547615
vn -0.610011 3.014820 2.998277
v -0.875362 0.449158 -0.447935
vn -1.570796 -1.570796 1.570796
v -1.670000 -0.170000 0.000015
vn -1.570796 1.570796 1.570796
v -1.670000 -0.000000 0.000015
vn -1.570796 -1.570796 -1.570796
v -1.670000 -0.170000 -2.999985
vn -1.570796 1.570796 -1.570796
v -1.670000 -0.000000 -2.999985
vn 1.570796 -1.570796 1.570796
v -0.030000 -0.170000 0.000015
vn 1.570796 1.570796 1.570796
v -0.030000 -0.000000 0.000015
vn 1.570796 -1.570796 -1.570796
v -0.030000 -0.170000 -2.999985
vn 1.570796 1.570796 -1.570796
v -0.030000 -0.000000 -2.999985
# 72 vertices, 0 vertices normals

f 2//2 3//3 1//1
f 4//4 5//5 3//3
f 6//6 7//7 5//5
f 8//8 9//9 7//7
f 10//10 11//11 9//9
f 12//12 13//13 11//11
f 14//14 15//15 13//13
f 16//16 17//17 15//15
f 18//18 19//19 17//17
f 20//20 21//21 19//19
f 22//22 23//23 21//21
f 24//24 25//25 23//23
f 26//26 27//27 25//25
f 28//28 29//29 27//27
f 30//30 31//31 29//29
f 32//32 33//33 31//31
f 34//34 35//35 33//33
f 36//36 37//37 35//35
f 38//38 39//39 37//37
f 40//40 41//41 39//39
f 42//42 43//43 41//41
f 44//44 45//45 43//43
f 46//46 47//47 45//45
f 48//48 49//49 47//47
f 50//50 51//51 49//49
f 52//52 53//53 51//51
f 54//54 55//55 53//53
f 56//56 57//57 55//55
f 58//58 59//59 57//57
f 60//60 61//61 59//59
f 54//54 38//38 22//22
f 62//62 63//63 61//61
f 64//64 1//1 63//63
f 55//55 63//63 31//31
f 2//2 4//4 3//3
f 4//4 6//6 5//5
f 6//6 8//8 7//7
f 8//8 10//10 9//9
f 10//10 12//12 11//11
f 12//12 14//14 13//13
f 14//14 16//16 15//15
f 16//16 18//18 17//17
f 18//18 20//20 19//19
f 20//20 22//22 21//21
f 22//22 24//24 23//23
f 24//24 26//26 25//25
f 26//26 28//28 27//27
f 28//28 30//30 29//29
f 30//30 32//32 31//31
f 32//32 34//34 33//33
f 34//34 36//36 35//35
f 36//36 38//38 37//37
f 38//38 40//40 39//39
f 40//40 42//42 41//41
f 42//42 44//44 43//43
f 44//44 46//46 45//45
f 46//46 48//48 47//47
f 48//48 50//50 49//49
f 50//50 52//52 51//51
f 52//52 54//54 53//53
f 54//54 56//56 55//55
f 56//56 58//58 57//57
f 58//58 60//60 59//59
f 60//60 62//62 61//61
f 6//6 4//4 2//2
f 2//2 64//64 62//62
f 62//62 60//60 54//54
f 60//60 58//58 54//54
f 58//58 56//56 54//54
f 54//54 52//52 50//50
f 50//50 48//48 54//54
f 48//48 46//46 54//54
f 46//46 44//44 38//38
f 44//44 42//42 38//38
f 42//42 40//40 38//38
f 38//38 36//36 34//34
f 34//34 32//32 38//38
f 32//32 30//30 38//38
f 30//30 28//28 26//26
f 26//26 24//24 22//22
f 22//22 20//20 18//18
f 18//18 16//16 14//14
f 14//14 12//12 10//10
f 10//10 8//8 6//6
f 6//6 2//2 54//54
f 2//2 62//62 54//54
f 30//30 26//26 38//38
f 26//26 22//22 38//38
f 22//22 18//18 14//14
f 14//14 10//10 22//22
f 10//10 6//6 22//22
f 54//54 46//46 38//38
f 6//6 54//54 22//22
f 62//62 64//64 63//63
f 64//64 2//2 1//1
f 63//63 1//1 7//7
f 1//1 3//3 7//7
f 3//3 5//5 7//7
f 7//7 9//9 15//15
f 9//9 11//11 15//15
f 11//11 13//13 15//15
f 15//15 17//17 19//19
f 19//19 21//21 23//23
f 23//23 25//25 31//31
f 25//25 27//27 31//31
f 27//27 29//29 31//31
f 31//31 33//33 35//35
f 35//35 37//37 39//39
f 39//39 41//41 43//43
f 43//43 45//45 47//47
f 47//47 49//49 51//51
f 51//51 53//53 47//47
f 53//53 55//55 47//47
f 55//55 57//57 59//59
f 59//59 61//61 63//63
f 15//15 19//19 31//31
f 19//19 23//23 31//31
f 31//31 35//35 47//47
f 35//35 39//39 47//47
f 39//39 43//43 47//47
f 55//55 59//59 63//63
f 63//63 7//7 31//31
f 7//7 15//15 31//31
f 47//47 55//55 31//31
f 66//66 67//67 65//65
f 68//68 71//71 67//67
f 72//72 69//69 71//71
f 70//70 65//65 69//69
f 71//71 65//65 67//67
f 68//68 70//70 72//72
f 66//66 68//68 67//67
f 68//68 72//72 71//71
f 72//72 70//70 69//69
f 70//70 66//66 65//65
f 71//71 69//69 65//65
f 68//68 66//66 70//70
# 136 faces, 0 coords texture

# End of File